<?xml version="1.0" ?><svg id="Layer_2" style="enable-background:new 0 0 32 32;" version="1.1" viewBox="0 0 32 32" xml:space="preserve" xmlns="http://www.w3.org/2000/svg" xmlns:xlink="http://www.w3.org/1999/xlink"><path d="M28.74121,24.86523L25.59179,9.93408c-0.33984-1.60986-1.78027-2.77783-3.4248-2.77783H22.0332V6.5332  C22.0332,3.20654,19.32714,0.5,16,0.5c-3.32666,0-6.0332,2.70654-6.0332,6.0332v0.62305H9.83252  c-1.64453,0-3.08496,1.16797-3.4248,2.77783L3.25927,24.86523c-0.34375,1.62939,0.06104,3.30566,1.10986,4.59912  C5.41845,30.7583,6.97558,31.5,8.64111,31.5h14.71826c1.66504,0,3.22168-0.7417,4.27051-2.03467  C28.67968,28.17236,29.08398,26.49561,28.74121,24.86523z M12.96679,6.5332C12.96679,4.86084,14.32763,3.5,16,3.5  c1.67285,0,3.0332,1.36084,3.0332,3.0332v0.62305h-6.06641V6.5332z M25.2998,27.5752C24.82324,28.16309,24.11621,28.5,23.35937,28.5  H8.64111c-0.75732,0-1.46484-0.3374-1.94189-0.92529c-0.47656-0.58789-0.66064-1.34961-0.50439-2.09033l3.14844-14.93115  c0.04834-0.22998,0.25439-0.39697,0.48926-0.39697h0.13428v2.30811c0,0.82861,0.67139,1.5,1.5,1.5s1.5-0.67139,1.5-1.5v-2.30811  h6.06641v2.30811c0,0.82861,0.67188,1.5,1.5,1.5s1.5-0.67139,1.5-1.5v-2.30811h0.13379c0.23535,0,0.44043,0.16699,0.48926,0.39697  l3.14941,14.93066C25.96191,26.2251,25.77734,26.9873,25.2998,27.5752z"/></svg>